<svg width="75" height="75" viewBox="0 0 75 75" fill="none" xmlns="http://www.w3.org/2000/svg">
<path fill-rule="evenodd" clip-rule="evenodd" d="M39.8438 18.75V11.7188H35.1562V18.75H28.125C19.0641 18.75 11.7188 26.0953 11.7188 35.1562V55.9656C11.7188 60.0059 14.9941 63.2812 19.0343 63.2812C20.9746 63.2812 22.8353 62.5106 24.2072 61.1384L33.7834 51.5625H41.2166L50.7928 61.1384C52.1647 62.5106 54.0253 63.2812 55.9656 63.2812C60.0059 63.2812 63.2812 60.0059 63.2812 55.9656V35.1562C63.2812 26.0953 55.9359 18.75 46.875 18.75H39.8438ZM58.5938 35.1562C58.5938 28.6842 53.3472 23.4375 46.875 23.4375H28.125C21.6529 23.4375 16.4062 28.6842 16.4062 35.1562V55.9656C16.4062 57.4172 17.5829 58.5938 19.0343 58.5938C19.7313 58.5938 20.3998 58.3169 20.8927 57.8241L31.8416 46.875H43.1584L54.1072 57.8241C54.6003 58.3169 55.2688 58.5938 55.9656 58.5938C57.4172 58.5938 58.5938 57.4172 58.5938 55.9656V35.1562ZM21.0938 39.8438V35.1562H25.7812V30.4688H30.4688V35.1562H35.1562V39.8438H30.4688V44.5312H25.7812V39.8438H21.0938ZM46.875 33.9844C46.875 35.9259 45.3009 37.5 43.3594 37.5C41.4178 37.5 39.8438 35.9259 39.8438 33.9844C39.8438 32.0428 41.4178 30.4688 43.3594 30.4688C45.3009 30.4688 46.875 32.0428 46.875 33.9844ZM50.3906 44.5312C52.3322 44.5312 53.9062 42.9572 53.9062 41.0156C53.9062 39.0741 52.3322 37.5 50.3906 37.5C48.4491 37.5 46.875 39.0741 46.875 41.0156C46.875 42.9572 48.4491 44.5312 50.3906 44.5312Z" fill="#26FF00"/>
</svg>
