<svg width="303" height="29" viewBox="0 0 303 29" fill="none" xmlns="http://www.w3.org/2000/svg">
<path d="M7.48 29H5.96046e-08V0.279998H7.48V29ZM40.4844 29H33.0444V18.08L22.6844 7.76H18.9644V29H11.4844V0.279998H25.8044L40.4844 15V29ZM73.4922 29H44.4922V0.279998H58.8122L73.4922 15V29ZM66.0522 21.56V18.08L55.6922 7.76H51.9722V21.56H66.0522ZM84.98 29H77.5V0.279998H84.98V29ZM117.144 29H88.9844V15L103.704 0.279998H117.144V7.76H106.784L103.424 11.12H115.064V18.6H96.4644V21.56H117.144V29ZM150.213 29H143.133L132.853 18.6H128.613V29H121.133V0.279998H150.213V11.04L142.973 18.04L146.453 21.56H150.213V29ZM142.733 11.12V7.84H128.613V11.12H142.733ZM182.379 29H154.219V15L168.939 0.279998H182.379V7.76H172.019L168.659 11.12H180.299V18.6H161.699V21.56H182.379V29ZM215.367 29H207.927V18.6H193.847V29H186.367V15L201.087 0.279998H215.367V29ZM207.927 11.12V7.76H204.167L200.807 11.12H207.927ZM248.295 29H219.375V0.279998H226.815V21.56H240.815V16.56H248.295V29ZM302.665 29H295.185V18.08L284.865 7.76H281.305V29H273.865V18.08L263.505 7.76H259.785V29H252.305V0.279998H266.625L273.865 7.52V0.279998H287.945L302.665 15V29Z" fill="#4FD436"/>
</svg>
